<svg width="20" height="20" viewBox="0 0 20 20" fill="none" xmlns="http://www.w3.org/2000/svg">
<path d="M15 2.5874C15.6219 2.5874 16.2408 2.82306 16.709 3.2915C17.6473 4.23 17.6473 5.77 16.709 6.7085L7.48633 15.9312C7.37179 16.0457 7.22951 16.1291 7.07227 16.1743L6.94824 16.2104H6.94727L2.74316 17.4116C2.72186 17.4177 2.69917 17.4181 2.67773 17.4126C2.65625 17.407 2.63682 17.3951 2.62109 17.3794C2.60539 17.3637 2.59351 17.3442 2.58789 17.3228C2.58233 17.3013 2.58289 17.2786 2.58887 17.2573L3.8252 12.9282C3.86978 12.7715 3.95349 12.6281 4.06836 12.5132L13.291 3.2915H13.292C13.7602 2.82316 14.3782 2.58743 15 2.5874ZM11.7764 5.15967L4.24512 12.6899C4.18083 12.7542 4.12997 12.8292 4.09473 12.9116L4.06543 12.9966L4.0459 13.063V13.0649L3.1377 16.2446L2.89062 17.1099L3.75586 16.8628L7.00293 15.9351H7.00391C7.12052 15.9015 7.22445 15.8388 7.30762 15.7563L15.1934 7.87061L14.8398 7.51709L12.4834 5.15967L12.1299 4.80615L11.7764 5.15967ZM15 2.82959C14.4456 2.82962 13.8915 3.04434 13.4678 3.46826L12.3066 4.62939L12.6602 4.98291L15.0166 7.34033L15.3701 7.69385L16.5322 6.53174C17.3834 5.68033 17.3834 4.31967 16.5322 3.46826L16.3857 3.32178H16.3691C15.9714 2.99534 15.4865 2.82959 15 2.82959Z" fill="black" stroke="#646464"/>
</svg>
