<svg width="28" height="28" viewBox="0 0 28 28" fill="none" xmlns="http://www.w3.org/2000/svg">
<path d="M25.0827 18.4563C25.0827 18.6313 25.0243 18.8063 24.8727 18.958C23.181 20.6613 20.171 23.6947 18.4443 25.433C18.2927 25.5963 18.0943 25.6663 17.896 25.6663C17.511 25.6663 17.1377 25.363 17.1377 24.9197V20.8363C17.1377 19.133 18.5843 17.7213 20.3577 17.7213C21.466 17.7097 23.006 17.7097 24.3243 17.7097C24.7793 17.7097 25.0827 18.0713 25.0827 18.4563Z" fill="black"/>
<path d="M25.0827 18.4563C25.0827 18.6313 25.0243 18.8063 24.8727 18.958C23.181 20.6613 20.171 23.6947 18.4443 25.433C18.2927 25.5963 18.0943 25.6663 17.896 25.6663C17.511 25.6663 17.1377 25.363 17.1377 24.9197V20.8363C17.1377 19.133 18.5843 17.7213 20.3577 17.7213C21.466 17.7097 23.006 17.7097 24.3243 17.7097C24.7793 17.7097 25.0827 18.0713 25.0827 18.4563Z" fill="black"/>
<path d="M19.402 2.33337H12.2503C11.6087 2.33337 11.0837 2.85837 11.0837 3.50004V7.58335C11.0837 9.52005 9.52035 11.0834 7.58365 11.0834H4.08365C3.44199 11.0834 2.91699 11.6084 2.91699 12.25V19.985C2.91699 23.1234 5.46035 25.6667 8.59865 25.6667H14.222C14.8637 25.6667 15.3887 25.1417 15.3887 24.5V20.8367C15.3887 18.1534 17.617 15.9717 20.3587 15.9717C20.977 15.96 22.482 15.96 23.917 15.96C24.5587 15.96 25.0837 15.4467 25.0837 14.7934V8.01505C25.0837 4.8767 22.5403 2.33337 19.402 2.33337ZM10.1737 19.845H7.09365C6.61535 19.845 6.21865 19.4484 6.21865 18.97C6.21865 18.48 6.61535 18.0834 7.09365 18.0834H10.1737C10.6753 18.0834 11.0487 18.48 11.0487 18.97C11.0487 19.4484 10.6753 19.845 10.1737 19.845ZM13.4287 15.5167H7.09365C6.61535 15.5167 6.21865 15.12 6.21865 14.6417C6.21865 14.1517 6.61535 13.755 7.09365 13.755H13.4287C13.907 13.755 14.3153 14.1517 14.3153 14.6417C14.3153 15.12 13.907 15.5167 13.4287 15.5167Z" fill="black"/>
<mask id="mask0_244_5059" style="mask-type:luminance" maskUnits="userSpaceOnUse" x="1" y="1" width="9" height="9">
<path d="M7.79937 1.51352H3.55228C2.42639 1.51352 1.51367 2.42623 1.51367 3.55213V7.79922C1.51367 8.92508 2.42639 9.83784 3.55228 9.83784H7.79937C8.92527 9.83784 9.838 8.92508 9.838 7.79922V3.55213C9.838 2.42623 8.92527 1.51352 7.79937 1.51352Z" fill="white"/>
</mask>
<g mask="url(#mask0_244_5059)">
<path d="M8.05352 9.63574C7.6014 9.01248 6.92028 8.59414 6.15993 8.4728C5.39954 8.35141 4.62208 8.53689 3.9984 8.98845C3.74508 9.17385 3.52262 9.39797 3.33924 9.65269C3.32129 9.67797 3.30142 9.70184 3.27979 9.72405H7.938C7.99915 9.72405 8.05859 9.72405 8.10786 9.72405C8.0881 9.69568 8.06998 9.66616 8.05352 9.63574Z" fill="black"/>
<path d="M9.72417 3.18378C9.72417 2.94938 9.67801 2.71729 9.58822 2.50076C9.4985 2.28423 9.36694 2.08751 9.20114 1.92185C9.03533 1.75619 8.83846 1.62483 8.62188 1.53529C8.40526 1.44574 8.17312 1.39977 7.93872 1.39999H3.18198C2.70932 1.40089 2.25631 1.58917 1.92225 1.92355C1.58819 2.25793 1.40035 2.71112 1.3999 3.18378V7.94052C1.40029 8.27985 1.4969 8.61206 1.67851 8.89872C2.9985 6.61203 4.28793 4.39674 5.58921 2.13219L7.5004 5.44492C5.64699 5.33451 4.50198 6.02426 3.95666 7.57697C4.57667 7.02529 5.37278 6.71215 6.20249 6.69357C7.42397 6.65452 8.34305 7.03335 9.0905 8.17159C9.23288 8.38935 9.36055 8.61637 9.47278 8.85116C9.63676 8.57502 9.72364 8.25998 9.72417 7.93885V3.18208V3.18378Z" fill="black"/>
</g>
</svg>
