<svg width="19" height="21" viewBox="0 0 19 21" fill="none" xmlns="http://www.w3.org/2000/svg">
<path d="M2.25 0C1.01 0 0 1.01 0 2.25V17.75C0 18.99 1.01 20 2.25 20H8.81543C8.38543 19.56 8.02535 19.055 7.73535 18.5H2.25C1.835 18.5 1.5 18.165 1.5 17.75V2.25C1.5 1.835 1.835 1.5 2.25 1.5H8V5.75C8 6.99 9.01 8 10.25 8H14.5V9.0752C15.02 9.1602 15.525 9.3 16 9.5V7.25C16 7.0425 15.9159 6.85535 15.7803 6.71973L9.28027 0.219727C9.14465 0.0841016 8.9575 0 8.75 0H2.25ZM9.5 2.56055L13.4395 6.5H10.25C9.835 6.5 9.5 6.165 9.5 5.75V2.56055ZM13.5 10C10.4625 10 8 12.4625 8 15.5C8 18.5375 10.4625 21 13.5 21C16.5375 21 19 18.5375 19 15.5C19 12.4625 16.5375 10 13.5 10ZM4.75 10.5C4.335 10.5 4 10.835 4 11.25C4 11.665 4.335 12 4.75 12H8.02539C8.38539 11.435 8.83461 10.925 9.34961 10.5H4.75ZM13.5 11.5C13.776 11.5 14 11.724 14 12V15H17C17.276 15 17.5 15.224 17.5 15.5C17.5 15.776 17.276 16 17 16H14V19C14 19.276 13.776 19.5 13.5 19.5C13.224 19.5 13 19.276 13 19V16H10C9.724 16 9.5 15.776 9.5 15.5C9.5 15.224 9.724 15 10 15H13V12C13 11.724 13.224 11.5 13.5 11.5ZM4.75 14C4.335 14 4 14.335 4 14.75C4 15.165 4.335 15.5 4.75 15.5H7C7 14.985 7.0598 14.48 7.1748 14H4.75Z" fill="black"/>
</svg>
